<svg xmlns="http://www.w3.org/2000/svg" xmlns:xlink="http://www.w3.org/1999/xlink" width="500" zoomAndPan="magnify" viewBox="0 0 375 374.999991" height="500" preserveAspectRatio="xMidYMid meet" version="1.0"><defs><g/></defs><g fill="#000000" fill-opacity="1"><g transform="translate(137.407847, 208.132561)"><g><path d="M 16.09375 0.53125 C 13.507812 0.53125 11.226562 0 9.25 -1.0625 C 7.28125 -2.132812 5.742188 -3.757812 4.640625 -5.9375 C 3.535156 -8.125 2.984375 -10.878906 2.984375 -14.203125 C 2.984375 -17.679688 3.5625 -20.523438 4.71875 -22.734375 C 5.882812 -24.941406 7.488281 -26.578125 9.53125 -27.640625 C 11.582031 -28.710938 13.910156 -29.25 16.515625 -29.25 C 17.941406 -29.25 19.320312 -29.101562 20.65625 -28.8125 C 22 -28.519531 23.097656 -28.160156 23.953125 -27.734375 L 22.640625 -24.078125 C 21.765625 -24.429688 20.753906 -24.75 19.609375 -25.03125 C 18.472656 -25.3125 17.40625 -25.453125 16.40625 -25.453125 C 14.414062 -25.453125 12.757812 -25.019531 11.4375 -24.15625 C 10.113281 -23.300781 9.125 -22.046875 8.46875 -20.390625 C 7.820312 -18.734375 7.5 -16.6875 7.5 -14.25 C 7.5 -11.925781 7.816406 -9.941406 8.453125 -8.296875 C 9.085938 -6.660156 10.035156 -5.410156 11.296875 -4.546875 C 12.566406 -3.679688 14.15625 -3.25 16.0625 -3.25 C 17.582031 -3.25 18.953125 -3.410156 20.171875 -3.734375 C 21.398438 -4.054688 22.507812 -4.4375 23.5 -4.875 L 23.5 -1 C 22.539062 -0.507812 21.472656 -0.132812 20.296875 0.125 C 19.117188 0.394531 17.71875 0.53125 16.09375 0.53125 Z M 16.09375 0.53125 "/></g></g></g><g fill="#000000" fill-opacity="1"><g transform="translate(160.379067, 208.132561)"><g><path d="M 28.296875 -28.71875 L 28.296875 0 L 24.734375 0 L 24.109375 -4.03125 L 23.875 -4.03125 C 23.28125 -3.039062 22.507812 -2.203125 21.5625 -1.515625 C 20.625 -0.835938 19.5625 -0.328125 18.375 0.015625 C 17.195312 0.359375 15.945312 0.53125 14.625 0.53125 C 12.351562 0.53125 10.445312 0.164062 8.90625 -0.5625 C 7.375 -1.300781 6.21875 -2.441406 5.4375 -3.984375 C 4.65625 -5.523438 4.265625 -7.5 4.265625 -9.90625 L 4.265625 -28.71875 L 8.671875 -28.71875 L 8.671875 -10.21875 C 8.671875 -7.820312 9.210938 -6.035156 10.296875 -4.859375 C 11.378906 -3.679688 13.03125 -3.09375 15.25 -3.09375 C 17.382812 -3.09375 19.082031 -3.492188 20.34375 -4.296875 C 21.613281 -5.097656 22.523438 -6.28125 23.078125 -7.84375 C 23.640625 -9.40625 23.921875 -11.320312 23.921875 -13.59375 L 23.921875 -28.71875 Z M 28.296875 -28.71875 "/></g></g></g><g fill="#000000" fill-opacity="1"><g transform="translate(190.557204, 208.132561)"><g><path d="M 23.171875 -7.859375 C 23.171875 -6.023438 22.710938 -4.484375 21.796875 -3.234375 C 20.878906 -1.984375 19.566406 -1.039062 17.859375 -0.40625 C 16.160156 0.21875 14.128906 0.53125 11.765625 0.53125 C 9.753906 0.53125 8.015625 0.367188 6.546875 0.046875 C 5.078125 -0.265625 3.796875 -0.707031 2.703125 -1.28125 L 2.703125 -5.296875 C 3.867188 -4.710938 5.265625 -4.1875 6.890625 -3.71875 C 8.515625 -3.25 10.175781 -3.015625 11.875 -3.015625 C 14.351562 -3.015625 16.148438 -3.414062 17.265625 -4.21875 C 18.390625 -5.019531 18.953125 -6.113281 18.953125 -7.5 C 18.953125 -8.28125 18.726562 -8.972656 18.28125 -9.578125 C 17.832031 -10.179688 17.082031 -10.765625 16.03125 -11.328125 C 14.988281 -11.898438 13.539062 -12.523438 11.6875 -13.203125 C 9.851562 -13.898438 8.265625 -14.59375 6.921875 -15.28125 C 5.585938 -15.976562 4.554688 -16.820312 3.828125 -17.8125 C 3.109375 -18.8125 2.75 -20.109375 2.75 -21.703125 C 2.75 -24.128906 3.726562 -25.992188 5.6875 -27.296875 C 7.65625 -28.597656 10.238281 -29.25 13.4375 -29.25 C 15.164062 -29.25 16.785156 -29.078125 18.296875 -28.734375 C 19.816406 -28.390625 21.226562 -27.929688 22.53125 -27.359375 L 21.078125 -23.875 C 19.878906 -24.382812 18.609375 -24.8125 17.265625 -25.15625 C 15.921875 -25.507812 14.550781 -25.6875 13.15625 -25.6875 C 11.144531 -25.6875 9.601562 -25.351562 8.53125 -24.6875 C 7.457031 -24.019531 6.921875 -23.113281 6.921875 -21.96875 C 6.921875 -21.070312 7.164062 -20.332031 7.65625 -19.75 C 8.15625 -19.175781 8.957031 -18.632812 10.0625 -18.125 C 11.164062 -17.625 12.613281 -17.035156 14.40625 -16.359375 C 16.207031 -15.691406 17.765625 -15.003906 19.078125 -14.296875 C 20.390625 -13.585938 21.398438 -12.726562 22.109375 -11.71875 C 22.816406 -10.71875 23.171875 -9.429688 23.171875 -7.859375 Z M 23.171875 -7.859375 "/></g></g></g><g fill="#000000" fill-opacity="1"><g transform="translate(213.39739, 208.132561)"><g><path d="M 13.859375 -3.046875 C 14.578125 -3.046875 15.3125 -3.101562 16.0625 -3.21875 C 16.8125 -3.34375 17.425781 -3.492188 17.90625 -3.671875 L 17.90625 -0.28125 C 17.394531 -0.0625 16.6875 0.125 15.78125 0.28125 C 14.882812 0.445312 14.007812 0.53125 13.15625 0.53125 C 11.632812 0.53125 10.253906 0.265625 9.015625 -0.265625 C 7.773438 -0.804688 6.78125 -1.710938 6.03125 -2.984375 C 5.289062 -4.265625 4.921875 -6.03125 4.921875 -8.28125 L 4.921875 -25.3125 L 0.84375 -25.3125 L 0.84375 -27.4375 L 4.953125 -29.140625 L 6.6875 -35.375 L 9.296875 -35.375 L 9.296875 -28.71875 L 17.71875 -28.71875 L 17.71875 -25.3125 L 9.296875 -25.3125 L 9.296875 -8.40625 C 9.296875 -6.613281 9.710938 -5.269531 10.546875 -4.375 C 11.378906 -3.488281 12.484375 -3.046875 13.859375 -3.046875 Z M 13.859375 -3.046875 "/></g></g></g><g fill="#000000" fill-opacity="1"><g transform="translate(229.790661, 208.132561)"><g><path d="M 14.8125 0.53125 C 11.175781 0.53125 8.296875 -0.707031 6.171875 -3.1875 C 4.046875 -5.675781 2.984375 -9.363281 2.984375 -14.25 C 2.984375 -19.195312 4.066406 -22.929688 6.234375 -25.453125 C 8.398438 -27.984375 11.285156 -29.25 14.890625 -29.25 C 16.410156 -29.25 17.738281 -29.046875 18.875 -28.640625 C 20.007812 -28.242188 20.984375 -27.707031 21.796875 -27.03125 C 22.617188 -26.363281 23.3125 -25.597656 23.875 -24.734375 L 24.1875 -24.734375 C 24.113281 -25.273438 24.039062 -26.015625 23.96875 -26.953125 C 23.90625 -27.898438 23.875 -28.671875 23.875 -29.265625 L 23.875 -40.78125 L 28.21875 -40.78125 L 28.21875 0 L 24.71875 0 L 24.0625 -4.09375 L 23.875 -4.09375 C 23.332031 -3.226562 22.644531 -2.445312 21.8125 -1.75 C 20.988281 -1.050781 20.003906 -0.492188 18.859375 -0.078125 C 17.710938 0.328125 16.363281 0.53125 14.8125 0.53125 Z M 15.484375 -3.09375 C 18.554688 -3.09375 20.726562 -3.960938 22 -5.703125 C 23.28125 -7.453125 23.921875 -10.050781 23.921875 -13.5 L 23.921875 -14.28125 C 23.921875 -17.9375 23.3125 -20.738281 22.09375 -22.6875 C 20.882812 -24.644531 18.679688 -25.625 15.484375 -25.625 C 12.816406 -25.625 10.816406 -24.597656 9.484375 -22.546875 C 8.160156 -20.492188 7.5 -17.695312 7.5 -14.15625 C 7.5 -10.625 8.15625 -7.894531 9.46875 -5.96875 C 10.789062 -4.050781 12.796875 -3.09375 15.484375 -3.09375 Z M 15.484375 -3.09375 "/></g></g></g><g fill="#000000" fill-opacity="1"><g transform="translate(259.890177, 208.132561)"><g><path d="M 15.640625 -29.25 C 18.085938 -29.25 20.1875 -28.707031 21.9375 -27.625 C 23.6875 -26.539062 25.019531 -25.023438 25.9375 -23.078125 C 26.863281 -21.128906 27.328125 -18.851562 27.328125 -16.25 L 27.328125 -13.546875 L 7.5 -13.546875 C 7.550781 -10.171875 8.390625 -7.601562 10.015625 -5.84375 C 11.640625 -4.082031 13.925781 -3.203125 16.875 -3.203125 C 18.695312 -3.203125 20.304688 -3.363281 21.703125 -3.6875 C 23.097656 -4.019531 24.546875 -4.507812 26.046875 -5.15625 L 26.046875 -1.34375 C 24.597656 -0.6875 23.160156 -0.210938 21.734375 0.078125 C 20.316406 0.378906 18.632812 0.53125 16.6875 0.53125 C 13.925781 0.53125 11.519531 -0.03125 9.46875 -1.15625 C 7.414062 -2.289062 5.820312 -3.945312 4.6875 -6.125 C 3.550781 -8.3125 2.984375 -10.988281 2.984375 -14.15625 C 2.984375 -17.25 3.503906 -19.925781 4.546875 -22.1875 C 5.585938 -24.445312 7.054688 -26.1875 8.953125 -27.40625 C 10.847656 -28.632812 13.078125 -29.25 15.640625 -29.25 Z M 15.59375 -25.6875 C 13.269531 -25.6875 11.414062 -24.925781 10.03125 -23.40625 C 8.65625 -21.882812 7.835938 -19.757812 7.578125 -17.03125 L 22.78125 -17.03125 C 22.757812 -18.75 22.488281 -20.253906 21.96875 -21.546875 C 21.457031 -22.847656 20.675781 -23.863281 19.625 -24.59375 C 18.582031 -25.320312 17.238281 -25.6875 15.59375 -25.6875 Z M 15.59375 -25.6875 "/></g></g></g><g fill="#000000" fill-opacity="1"><g transform="translate(287.290375, 208.132561)"><g><path d="M 10.90625 0 L 0 -28.71875 L 4.671875 -28.71875 L 10.984375 -11.34375 C 11.421875 -10.15625 11.863281 -8.84375 12.3125 -7.40625 C 12.769531 -5.976562 13.085938 -4.828125 13.265625 -3.953125 L 13.4375 -3.953125 C 13.65625 -4.828125 14.003906 -5.984375 14.484375 -7.421875 C 14.972656 -8.867188 15.421875 -10.175781 15.828125 -11.34375 L 22.140625 -28.71875 L 26.8125 -28.71875 L 15.875 0 Z M 10.90625 0 "/></g></g></g><g fill="#000000" fill-opacity="1"><g transform="translate(311.362288, 208.132561)"><g><path d="M 8.9375 -28.71875 L 8.9375 0 L 4.59375 0 L 4.59375 -28.71875 Z M 6.8125 -39.46875 C 7.53125 -39.46875 8.144531 -39.234375 8.65625 -38.765625 C 9.175781 -38.304688 9.4375 -37.585938 9.4375 -36.609375 C 9.4375 -35.648438 9.175781 -34.929688 8.65625 -34.453125 C 8.144531 -33.984375 7.53125 -33.75 6.8125 -33.75 C 6.0625 -33.75 5.4375 -33.984375 4.9375 -34.453125 C 4.4375 -34.929688 4.1875 -35.648438 4.1875 -36.609375 C 4.1875 -37.585938 4.4375 -38.304688 4.9375 -38.765625 C 5.4375 -39.234375 6.0625 -39.46875 6.8125 -39.46875 Z M 6.8125 -39.46875 "/></g></g></g><g fill="#000000" fill-opacity="1"><g transform="translate(322.173475, 208.132561)"><g><path d="M 35.765625 -29.25 C 38.929688 -29.25 41.316406 -28.421875 42.921875 -26.765625 C 44.535156 -25.117188 45.34375 -22.46875 45.34375 -18.8125 L 45.34375 0 L 41.046875 0 L 41.046875 -18.609375 C 41.046875 -20.929688 40.539062 -22.671875 39.53125 -23.828125 C 38.53125 -24.992188 37.039062 -25.578125 35.0625 -25.578125 C 32.28125 -25.578125 30.257812 -24.769531 29 -23.15625 C 27.75 -21.550781 27.125 -19.1875 27.125 -16.0625 L 27.125 0 L 22.796875 0 L 22.796875 -18.609375 C 22.796875 -20.160156 22.570312 -21.453125 22.125 -22.484375 C 21.6875 -23.515625 21.023438 -24.285156 20.140625 -24.796875 C 19.253906 -25.316406 18.140625 -25.578125 16.796875 -25.578125 C 14.890625 -25.578125 13.359375 -25.179688 12.203125 -24.390625 C 11.054688 -23.609375 10.222656 -22.441406 9.703125 -20.890625 C 9.191406 -19.347656 8.9375 -17.453125 8.9375 -15.203125 L 8.9375 0 L 4.59375 0 L 4.59375 -28.71875 L 8.09375 -28.71875 L 8.75 -24.65625 L 8.984375 -24.65625 C 9.566406 -25.65625 10.289062 -26.492188 11.15625 -27.171875 C 12.03125 -27.859375 13.007812 -28.375 14.09375 -28.71875 C 15.175781 -29.070312 16.332031 -29.25 17.5625 -29.25 C 19.738281 -29.25 21.566406 -28.84375 23.046875 -28.03125 C 24.523438 -27.21875 25.597656 -25.976562 26.265625 -24.3125 L 26.5 -24.3125 C 27.4375 -25.976562 28.726562 -27.21875 30.375 -28.03125 C 32.019531 -28.84375 33.816406 -29.25 35.765625 -29.25 Z M 35.765625 -29.25 "/></g></g></g><g fill="#393636" fill-opacity="0.302"><g transform="translate(54.186474, 236.629087)"><g><path d="M 218.078125 -4.34375 C 218.273438 -4.195312 218.398438 -3.960938 218.453125 -3.640625 L 218.5 -3.40625 C 218.519531 -3.28125 218.535156 -3.164062 218.546875 -3.0625 C 218.472656 -2.71875 218.3125 -2.457031 218.0625 -2.28125 C 217.820312 -2.101562 217.535156 -1.988281 217.203125 -1.9375 C 217.046875 -1.90625 216.878906 -1.890625 216.703125 -1.890625 C 216.523438 -1.890625 216.382812 -1.90625 216.28125 -1.9375 C 214.90625 -2.800781 213.46875 -3.304688 211.96875 -3.453125 C 210.46875 -3.609375 208.988281 -3.648438 207.53125 -3.578125 C 206.632812 -3.546875 205.757812 -3.539062 204.90625 -3.5625 C 185.457031 -4.207031 166.046875 -3.992188 146.671875 -2.921875 C 136.816406 -2.273438 126.96875 -1.5 117.125 -0.59375 C 109.53125 0.125 101.957031 1.019531 94.40625 2.09375 C 89.425781 2.851562 84.46875 3.515625 79.53125 4.078125 C 75.875 4.546875 72.21875 5.140625 68.5625 5.859375 C 67.394531 6.109375 66.265625 6.320312 65.171875 6.5 C 61.816406 7.09375 58.460938 7.679688 55.109375 8.265625 C 46.003906 9.890625 36.925781 11.597656 27.875 13.390625 C 20.09375 14.941406 12.359375 16.679688 4.671875 18.609375 C -3.015625 20.535156 -10.597656 22.816406 -18.078125 25.453125 C -23.171875 27.128906 -28.082031 29.25 -32.8125 31.8125 C -32.976562 31.882812 -33.15625 32.003906 -33.34375 32.171875 C -33.875 32.484375 -34.410156 32.753906 -34.953125 32.984375 C -35.503906 33.210938 -36.117188 33.316406 -36.796875 33.296875 C -37.546875 33.328125 -38.054688 33.015625 -38.328125 32.359375 C -38.421875 32.160156 -38.441406 31.929688 -38.390625 31.671875 C -38.347656 31.421875 -38.265625 31.191406 -38.140625 30.984375 C -37.273438 29.992188 -36.375 29.0625 -35.4375 28.1875 C -27.007812 19.90625 -18.847656 11.367188 -10.953125 2.578125 C 2.972656 -12.578125 16.09375 -28.382812 28.40625 -44.84375 C 36.070312 -55.082031 43.878906 -65.175781 51.828125 -75.125 C 56.898438 -81.488281 61.9375 -87.898438 66.9375 -94.359375 C 69.363281 -97.523438 71.757812 -100.742188 74.125 -104.015625 C 74.425781 -104.472656 74.710938 -104.894531 74.984375 -105.28125 C 75.148438 -105.394531 75.269531 -105.53125 75.34375 -105.6875 C 75.582031 -105.988281 75.800781 -106.3125 76 -106.65625 C 76.195312 -107.007812 76.257812 -107.394531 76.1875 -107.8125 C 75.5625 -108.164062 74.941406 -108.351562 74.328125 -108.375 C 73.710938 -108.394531 73.0625 -108.347656 72.375 -108.234375 C 72.113281 -108.191406 71.816406 -108.144531 71.484375 -108.09375 C 64.460938 -107.476562 57.46875 -106.679688 50.5 -105.703125 C 43.539062 -104.734375 36.585938 -103.523438 29.640625 -102.078125 C 23.796875 -100.890625 17.960938 -99.5625 12.140625 -98.09375 C 6.316406 -96.632812 0.582031 -94.90625 -5.0625 -92.90625 C -5.34375 -92.8125 -5.613281 -92.722656 -5.875 -92.640625 C -6.894531 -92.285156 -7.875 -91.878906 -8.8125 -91.421875 C -9.757812 -90.960938 -10.617188 -90.335938 -11.390625 -89.546875 C -11.054688 -88.460938 -10.5 -87.628906 -9.71875 -87.046875 C -8.945312 -86.460938 -8.078125 -85.972656 -7.109375 -85.578125 C -6.609375 -85.328125 -6.117188 -85.054688 -5.640625 -84.765625 C -2.835938 -83.191406 0.140625 -81.984375 3.296875 -81.140625 C 3.398438 -81.097656 3.507812 -81.003906 3.625 -80.859375 C 3.738281 -80.710938 3.820312 -80.59375 3.875 -80.5 C 3.9375 -80.144531 3.882812 -79.898438 3.71875 -79.765625 C 3.550781 -79.640625 3.359375 -79.519531 3.140625 -79.40625 C 1.859375 -78.925781 0.597656 -78.863281 -0.640625 -79.21875 C -3.066406 -79.957031 -5.425781 -80.832031 -7.71875 -81.84375 C -10.007812 -82.851562 -12.1875 -84.101562 -14.25 -85.59375 C -17.570312 -88 -17.472656 -90.25 -13.953125 -92.34375 C -12.054688 -93.488281 -10.046875 -94.460938 -7.921875 -95.265625 C -4.828125 -96.503906 -1.691406 -97.578125 1.484375 -98.484375 C 4.671875 -99.390625 7.863281 -100.285156 11.0625 -101.171875 C 11.382812 -101.222656 11.707031 -101.300781 12.03125 -101.40625 C 20.28125 -103.539062 28.597656 -105.316406 36.984375 -106.734375 C 45.378906 -108.148438 53.78125 -109.421875 62.1875 -110.546875 C 66.84375 -111.148438 71.523438 -111.578125 76.234375 -111.828125 C 77.398438 -111.890625 78.492188 -112.117188 79.515625 -112.515625 C 80.535156 -112.910156 81.410156 -113.613281 82.140625 -114.625 C 82.316406 -114.945312 82.601562 -115.210938 83 -115.421875 C 83.394531 -115.628906 83.769531 -115.820312 84.125 -116 C 84.289062 -116.070312 84.414062 -116.144531 84.5 -116.21875 C 84.988281 -116.40625 85.429688 -116.390625 85.828125 -116.171875 C 86.222656 -115.953125 86.414062 -115.535156 86.40625 -114.921875 C 86.457031 -114.296875 86.578125 -113.832031 86.765625 -113.53125 C 86.960938 -113.238281 87.363281 -113.097656 87.96875 -113.109375 C 88.257812 -113.109375 88.539062 -113.132812 88.8125 -113.1875 C 89.976562 -113.269531 91.160156 -113.269531 92.359375 -113.1875 C 93.066406 -113.113281 93.460938 -112.6875 93.546875 -111.90625 C 93.503906 -111.613281 93.398438 -111.367188 93.234375 -111.171875 C 93.078125 -110.984375 92.890625 -110.875 92.671875 -110.84375 C 91.429688 -110.53125 90.175781 -110.25 88.90625 -110 C 87.519531 -109.78125 86.414062 -109.601562 85.59375 -109.46875 C 84.59375 -109.34375 83.84375 -109.191406 83.34375 -109.015625 C 82.84375 -108.847656 82.410156 -108.566406 82.046875 -108.171875 C 81.679688 -107.785156 81.203125 -107.148438 80.609375 -106.265625 C 80.148438 -105.628906 79.554688 -104.800781 78.828125 -103.78125 C 72.921875 -95.800781 66.875 -87.914062 60.6875 -80.125 C 58.625 -77.476562 56.554688 -74.859375 54.484375 -72.265625 C 45.484375 -60.617188 36.503906 -48.914062 27.546875 -37.15625 C 15.878906 -21.976562 3.546875 -7.394531 -9.453125 6.59375 C -12.378906 9.769531 -15.332031 12.929688 -18.3125 16.078125 C -20.113281 17.984375 -21.929688 19.878906 -23.765625 21.765625 C -23.867188 21.890625 -23.984375 22.03125 -24.109375 22.1875 C -24.390625 22.46875 -24.644531 22.765625 -24.875 23.078125 C -25.113281 23.398438 -25.191406 23.796875 -25.109375 24.265625 C -23.992188 23.929688 -22.875 23.582031 -21.75 23.21875 C -19.0625 22.34375 -16.347656 21.457031 -13.609375 20.5625 C -5.015625 17.800781 3.722656 15.410156 12.609375 13.390625 C 23.796875 10.910156 35.039062 8.625 46.34375 6.53125 C 57.65625 4.445312 68.976562 2.507812 80.3125 0.71875 C 97.644531 -1.96875 115.035156 -3.941406 132.484375 -5.203125 C 158.523438 -7.046875 184.550781 -7.226562 210.5625 -5.75 C 210.800781 -5.726562 211.039062 -5.710938 211.28125 -5.703125 C 212.851562 -5.679688 214.382812 -5.5625 215.875 -5.34375 C 216.695312 -5.195312 217.429688 -4.863281 218.078125 -4.34375 Z M 218.078125 -4.34375 "/></g></g></g><g fill="#393636" fill-opacity="0.302"><g transform="translate(99.138312, 229.327842)"><g><path d="M 24.125 -23.5625 C 24.769531 -23.3125 24.953125 -22.5 24.671875 -21.125 C 24.097656 -20.050781 23.460938 -19.035156 22.765625 -18.078125 C 22.078125 -17.117188 21.296875 -16.234375 20.421875 -15.421875 C 20.347656 -15.410156 20.316406 -15.378906 20.328125 -15.328125 C 19.742188 -14.773438 19.117188 -14.273438 18.453125 -13.828125 C 12.828125 -10.703125 9.566406 -11.46875 8.671875 -16.125 C 6.585938 -13.632812 5.171875 -12.082031 4.421875 -11.46875 C 2.628906 -9.976562 0.578125 -9.109375 -1.734375 -8.859375 C -3.460938 -8.671875 -4.707031 -8.992188 -5.46875 -9.828125 C -6.226562 -10.671875 -6.378906 -11.953125 -5.921875 -13.671875 C -5.234375 -16.390625 -4.035156 -18.898438 -2.328125 -21.203125 C -0.304688 -23.796875 2.039062 -25.992188 4.71875 -27.796875 C 6.144531 -28.816406 7.726562 -29.375 9.46875 -29.46875 C 11.1875 -29.65625 12.375 -28.867188 13.03125 -27.109375 C 13.269531 -26.566406 13.207031 -26.050781 12.84375 -25.5625 C 12.375 -24.96875 11.757812 -24.75 11 -24.90625 C 10.945312 -24.894531 10.875 -24.894531 10.78125 -24.90625 C 10.6875 -24.925781 10.609375 -24.957031 10.546875 -25 C 9.660156 -25.882812 8.863281 -26.1875 8.15625 -25.90625 C 7.445312 -25.625 6.710938 -25.164062 5.953125 -24.53125 C 2.472656 -21.65625 0.117188 -18.046875 -1.109375 -13.703125 C -1.179688 -13.515625 -1.210938 -13.304688 -1.203125 -13.078125 C -1.191406 -12.859375 -1.097656 -12.703125 -0.921875 -12.609375 C -0.453125 -12.523438 0.0351562 -12.632812 0.546875 -12.9375 C 1.066406 -13.25 1.570312 -13.65625 2.0625 -14.15625 C 2.550781 -14.65625 2.953125 -15.078125 3.265625 -15.421875 C 3.304688 -15.492188 3.328125 -15.53125 3.328125 -15.53125 C 4.910156 -17.363281 6.445312 -19.222656 7.9375 -21.109375 C 8.582031 -22.054688 9.472656 -22.675781 10.609375 -22.96875 C 12.265625 -23.238281 13.078125 -22.609375 13.046875 -21.078125 C 12.984375 -20.492188 12.90625 -19.921875 12.8125 -19.359375 C 12.550781 -16.867188 12.753906 -15.460938 13.421875 -15.140625 C 14.085938 -14.828125 15.003906 -14.976562 16.171875 -15.59375 C 17.347656 -16.21875 18.460938 -17.210938 19.515625 -18.578125 C 20.566406 -19.941406 21.4375 -21.175781 22.125 -22.28125 C 22.820312 -23.382812 23.488281 -23.8125 24.125 -23.5625 Z M 24.125 -23.5625 "/></g></g></g><g fill="#393636" fill-opacity="0.502"><g transform="translate(50.001755, 234.137052)"><g><path d="M 218.078125 -4.34375 C 218.273438 -4.195312 218.398438 -3.960938 218.453125 -3.640625 L 218.5 -3.40625 C 218.519531 -3.28125 218.535156 -3.164062 218.546875 -3.0625 C 218.472656 -2.71875 218.3125 -2.457031 218.0625 -2.28125 C 217.820312 -2.101562 217.535156 -1.988281 217.203125 -1.9375 C 217.046875 -1.90625 216.878906 -1.890625 216.703125 -1.890625 C 216.523438 -1.890625 216.382812 -1.90625 216.28125 -1.9375 C 214.90625 -2.800781 213.46875 -3.304688 211.96875 -3.453125 C 210.46875 -3.609375 208.988281 -3.648438 207.53125 -3.578125 C 206.632812 -3.546875 205.757812 -3.539062 204.90625 -3.5625 C 185.457031 -4.207031 166.046875 -3.992188 146.671875 -2.921875 C 136.816406 -2.273438 126.96875 -1.5 117.125 -0.59375 C 109.53125 0.125 101.957031 1.019531 94.40625 2.09375 C 89.425781 2.851562 84.46875 3.515625 79.53125 4.078125 C 75.875 4.546875 72.21875 5.140625 68.5625 5.859375 C 67.394531 6.109375 66.265625 6.320312 65.171875 6.5 C 61.816406 7.09375 58.460938 7.679688 55.109375 8.265625 C 46.003906 9.890625 36.925781 11.597656 27.875 13.390625 C 20.09375 14.941406 12.359375 16.679688 4.671875 18.609375 C -3.015625 20.535156 -10.597656 22.816406 -18.078125 25.453125 C -23.171875 27.128906 -28.082031 29.25 -32.8125 31.8125 C -32.976562 31.882812 -33.15625 32.003906 -33.34375 32.171875 C -33.875 32.484375 -34.410156 32.753906 -34.953125 32.984375 C -35.503906 33.210938 -36.117188 33.316406 -36.796875 33.296875 C -37.546875 33.328125 -38.054688 33.015625 -38.328125 32.359375 C -38.421875 32.160156 -38.441406 31.929688 -38.390625 31.671875 C -38.347656 31.421875 -38.265625 31.191406 -38.140625 30.984375 C -37.273438 29.992188 -36.375 29.0625 -35.4375 28.1875 C -27.007812 19.90625 -18.847656 11.367188 -10.953125 2.578125 C 2.972656 -12.578125 16.09375 -28.382812 28.40625 -44.84375 C 36.070312 -55.082031 43.878906 -65.175781 51.828125 -75.125 C 56.898438 -81.488281 61.9375 -87.898438 66.9375 -94.359375 C 69.363281 -97.523438 71.757812 -100.742188 74.125 -104.015625 C 74.425781 -104.472656 74.710938 -104.894531 74.984375 -105.28125 C 75.148438 -105.394531 75.269531 -105.53125 75.34375 -105.6875 C 75.582031 -105.988281 75.800781 -106.3125 76 -106.65625 C 76.195312 -107.007812 76.257812 -107.394531 76.1875 -107.8125 C 75.5625 -108.164062 74.941406 -108.351562 74.328125 -108.375 C 73.710938 -108.394531 73.0625 -108.347656 72.375 -108.234375 C 72.113281 -108.191406 71.816406 -108.144531 71.484375 -108.09375 C 64.460938 -107.476562 57.46875 -106.679688 50.5 -105.703125 C 43.539062 -104.734375 36.585938 -103.523438 29.640625 -102.078125 C 23.796875 -100.890625 17.960938 -99.5625 12.140625 -98.09375 C 6.316406 -96.632812 0.582031 -94.90625 -5.0625 -92.90625 C -5.34375 -92.8125 -5.613281 -92.722656 -5.875 -92.640625 C -6.894531 -92.285156 -7.875 -91.878906 -8.8125 -91.421875 C -9.757812 -90.960938 -10.617188 -90.335938 -11.390625 -89.546875 C -11.054688 -88.460938 -10.5 -87.628906 -9.71875 -87.046875 C -8.945312 -86.460938 -8.078125 -85.972656 -7.109375 -85.578125 C -6.609375 -85.328125 -6.117188 -85.054688 -5.640625 -84.765625 C -2.835938 -83.191406 0.140625 -81.984375 3.296875 -81.140625 C 3.398438 -81.097656 3.507812 -81.003906 3.625 -80.859375 C 3.738281 -80.710938 3.820312 -80.59375 3.875 -80.5 C 3.9375 -80.144531 3.882812 -79.898438 3.71875 -79.765625 C 3.550781 -79.640625 3.359375 -79.519531 3.140625 -79.40625 C 1.859375 -78.925781 0.597656 -78.863281 -0.640625 -79.21875 C -3.066406 -79.957031 -5.425781 -80.832031 -7.71875 -81.84375 C -10.007812 -82.851562 -12.1875 -84.101562 -14.25 -85.59375 C -17.570312 -88 -17.472656 -90.25 -13.953125 -92.34375 C -12.054688 -93.488281 -10.046875 -94.460938 -7.921875 -95.265625 C -4.828125 -96.503906 -1.691406 -97.578125 1.484375 -98.484375 C 4.671875 -99.390625 7.863281 -100.285156 11.0625 -101.171875 C 11.382812 -101.222656 11.707031 -101.300781 12.03125 -101.40625 C 20.28125 -103.539062 28.597656 -105.316406 36.984375 -106.734375 C 45.378906 -108.148438 53.78125 -109.421875 62.1875 -110.546875 C 66.84375 -111.148438 71.523438 -111.578125 76.234375 -111.828125 C 77.398438 -111.890625 78.492188 -112.117188 79.515625 -112.515625 C 80.535156 -112.910156 81.410156 -113.613281 82.140625 -114.625 C 82.316406 -114.945312 82.601562 -115.210938 83 -115.421875 C 83.394531 -115.628906 83.769531 -115.820312 84.125 -116 C 84.289062 -116.070312 84.414062 -116.144531 84.5 -116.21875 C 84.988281 -116.40625 85.429688 -116.390625 85.828125 -116.171875 C 86.222656 -115.953125 86.414062 -115.535156 86.40625 -114.921875 C 86.457031 -114.296875 86.578125 -113.832031 86.765625 -113.53125 C 86.960938 -113.238281 87.363281 -113.097656 87.96875 -113.109375 C 88.257812 -113.109375 88.539062 -113.132812 88.8125 -113.1875 C 89.976562 -113.269531 91.160156 -113.269531 92.359375 -113.1875 C 93.066406 -113.113281 93.460938 -112.6875 93.546875 -111.90625 C 93.503906 -111.613281 93.398438 -111.367188 93.234375 -111.171875 C 93.078125 -110.984375 92.890625 -110.875 92.671875 -110.84375 C 91.429688 -110.53125 90.175781 -110.25 88.90625 -110 C 87.519531 -109.78125 86.414062 -109.601562 85.59375 -109.46875 C 84.59375 -109.34375 83.84375 -109.191406 83.34375 -109.015625 C 82.84375 -108.847656 82.410156 -108.566406 82.046875 -108.171875 C 81.679688 -107.785156 81.203125 -107.148438 80.609375 -106.265625 C 80.148438 -105.628906 79.554688 -104.800781 78.828125 -103.78125 C 72.921875 -95.800781 66.875 -87.914062 60.6875 -80.125 C 58.625 -77.476562 56.554688 -74.859375 54.484375 -72.265625 C 45.484375 -60.617188 36.503906 -48.914062 27.546875 -37.15625 C 15.878906 -21.976562 3.546875 -7.394531 -9.453125 6.59375 C -12.378906 9.769531 -15.332031 12.929688 -18.3125 16.078125 C -20.113281 17.984375 -21.929688 19.878906 -23.765625 21.765625 C -23.867188 21.890625 -23.984375 22.03125 -24.109375 22.1875 C -24.390625 22.46875 -24.644531 22.765625 -24.875 23.078125 C -25.113281 23.398438 -25.191406 23.796875 -25.109375 24.265625 C -23.992188 23.929688 -22.875 23.582031 -21.75 23.21875 C -19.0625 22.34375 -16.347656 21.457031 -13.609375 20.5625 C -5.015625 17.800781 3.722656 15.410156 12.609375 13.390625 C 23.796875 10.910156 35.039062 8.625 46.34375 6.53125 C 57.65625 4.445312 68.976562 2.507812 80.3125 0.71875 C 97.644531 -1.96875 115.035156 -3.941406 132.484375 -5.203125 C 158.523438 -7.046875 184.550781 -7.226562 210.5625 -5.75 C 210.800781 -5.726562 211.039062 -5.710938 211.28125 -5.703125 C 212.851562 -5.679688 214.382812 -5.5625 215.875 -5.34375 C 216.695312 -5.195312 217.429688 -4.863281 218.078125 -4.34375 Z M 218.078125 -4.34375 "/></g></g></g><g fill="#393636" fill-opacity="0.502"><g transform="translate(94.953593, 226.835807)"><g><path d="M 24.125 -23.5625 C 24.769531 -23.3125 24.953125 -22.5 24.671875 -21.125 C 24.097656 -20.050781 23.460938 -19.035156 22.765625 -18.078125 C 22.078125 -17.117188 21.296875 -16.234375 20.421875 -15.421875 C 20.347656 -15.410156 20.316406 -15.378906 20.328125 -15.328125 C 19.742188 -14.773438 19.117188 -14.273438 18.453125 -13.828125 C 12.828125 -10.703125 9.566406 -11.46875 8.671875 -16.125 C 6.585938 -13.632812 5.171875 -12.082031 4.421875 -11.46875 C 2.628906 -9.976562 0.578125 -9.109375 -1.734375 -8.859375 C -3.460938 -8.671875 -4.707031 -8.992188 -5.46875 -9.828125 C -6.226562 -10.671875 -6.378906 -11.953125 -5.921875 -13.671875 C -5.234375 -16.390625 -4.035156 -18.898438 -2.328125 -21.203125 C -0.304688 -23.796875 2.039062 -25.992188 4.71875 -27.796875 C 6.144531 -28.816406 7.726562 -29.375 9.46875 -29.46875 C 11.1875 -29.65625 12.375 -28.867188 13.03125 -27.109375 C 13.269531 -26.566406 13.207031 -26.050781 12.84375 -25.5625 C 12.375 -24.96875 11.757812 -24.75 11 -24.90625 C 10.945312 -24.894531 10.875 -24.894531 10.78125 -24.90625 C 10.6875 -24.925781 10.609375 -24.957031 10.546875 -25 C 9.660156 -25.882812 8.863281 -26.1875 8.15625 -25.90625 C 7.445312 -25.625 6.710938 -25.164062 5.953125 -24.53125 C 2.472656 -21.65625 0.117188 -18.046875 -1.109375 -13.703125 C -1.179688 -13.515625 -1.210938 -13.304688 -1.203125 -13.078125 C -1.191406 -12.859375 -1.097656 -12.703125 -0.921875 -12.609375 C -0.453125 -12.523438 0.0351562 -12.632812 0.546875 -12.9375 C 1.066406 -13.25 1.570312 -13.65625 2.0625 -14.15625 C 2.550781 -14.65625 2.953125 -15.078125 3.265625 -15.421875 C 3.304688 -15.492188 3.328125 -15.53125 3.328125 -15.53125 C 4.910156 -17.363281 6.445312 -19.222656 7.9375 -21.109375 C 8.582031 -22.054688 9.472656 -22.675781 10.609375 -22.96875 C 12.265625 -23.238281 13.078125 -22.609375 13.046875 -21.078125 C 12.984375 -20.492188 12.90625 -19.921875 12.8125 -19.359375 C 12.550781 -16.867188 12.753906 -15.460938 13.421875 -15.140625 C 14.085938 -14.828125 15.003906 -14.976562 16.171875 -15.59375 C 17.347656 -16.21875 18.460938 -17.210938 19.515625 -18.578125 C 20.566406 -19.941406 21.4375 -21.175781 22.125 -22.28125 C 22.820312 -23.382812 23.488281 -23.8125 24.125 -23.5625 Z M 24.125 -23.5625 "/></g></g></g><g fill="#000000" fill-opacity="1"><g transform="translate(45.817035, 231.644986)"><g><path d="M 218.078125 -4.34375 C 218.273438 -4.195312 218.398438 -3.960938 218.453125 -3.640625 L 218.5 -3.40625 C 218.519531 -3.28125 218.535156 -3.164062 218.546875 -3.0625 C 218.472656 -2.71875 218.3125 -2.457031 218.0625 -2.28125 C 217.820312 -2.101562 217.535156 -1.988281 217.203125 -1.9375 C 217.046875 -1.90625 216.878906 -1.890625 216.703125 -1.890625 C 216.523438 -1.890625 216.382812 -1.90625 216.28125 -1.9375 C 214.90625 -2.800781 213.46875 -3.304688 211.96875 -3.453125 C 210.46875 -3.609375 208.988281 -3.648438 207.53125 -3.578125 C 206.632812 -3.546875 205.757812 -3.539062 204.90625 -3.5625 C 185.457031 -4.207031 166.046875 -3.992188 146.671875 -2.921875 C 136.816406 -2.273438 126.96875 -1.5 117.125 -0.59375 C 109.53125 0.125 101.957031 1.019531 94.40625 2.09375 C 89.425781 2.851562 84.46875 3.515625 79.53125 4.078125 C 75.875 4.546875 72.21875 5.140625 68.5625 5.859375 C 67.394531 6.109375 66.265625 6.320312 65.171875 6.5 C 61.816406 7.09375 58.460938 7.679688 55.109375 8.265625 C 46.003906 9.890625 36.925781 11.597656 27.875 13.390625 C 20.09375 14.941406 12.359375 16.679688 4.671875 18.609375 C -3.015625 20.535156 -10.597656 22.816406 -18.078125 25.453125 C -23.171875 27.128906 -28.082031 29.25 -32.8125 31.8125 C -32.976562 31.882812 -33.15625 32.003906 -33.34375 32.171875 C -33.875 32.484375 -34.410156 32.753906 -34.953125 32.984375 C -35.503906 33.210938 -36.117188 33.316406 -36.796875 33.296875 C -37.546875 33.328125 -38.054688 33.015625 -38.328125 32.359375 C -38.421875 32.160156 -38.441406 31.929688 -38.390625 31.671875 C -38.347656 31.421875 -38.265625 31.191406 -38.140625 30.984375 C -37.273438 29.992188 -36.375 29.0625 -35.4375 28.1875 C -27.007812 19.90625 -18.847656 11.367188 -10.953125 2.578125 C 2.972656 -12.578125 16.09375 -28.382812 28.40625 -44.84375 C 36.070312 -55.082031 43.878906 -65.175781 51.828125 -75.125 C 56.898438 -81.488281 61.9375 -87.898438 66.9375 -94.359375 C 69.363281 -97.523438 71.757812 -100.742188 74.125 -104.015625 C 74.425781 -104.472656 74.710938 -104.894531 74.984375 -105.28125 C 75.148438 -105.394531 75.269531 -105.53125 75.34375 -105.6875 C 75.582031 -105.988281 75.800781 -106.3125 76 -106.65625 C 76.195312 -107.007812 76.257812 -107.394531 76.1875 -107.8125 C 75.5625 -108.164062 74.941406 -108.351562 74.328125 -108.375 C 73.710938 -108.394531 73.0625 -108.347656 72.375 -108.234375 C 72.113281 -108.191406 71.816406 -108.144531 71.484375 -108.09375 C 64.460938 -107.476562 57.46875 -106.679688 50.5 -105.703125 C 43.539062 -104.734375 36.585938 -103.523438 29.640625 -102.078125 C 23.796875 -100.890625 17.960938 -99.5625 12.140625 -98.09375 C 6.316406 -96.632812 0.582031 -94.90625 -5.0625 -92.90625 C -5.34375 -92.8125 -5.613281 -92.722656 -5.875 -92.640625 C -6.894531 -92.285156 -7.875 -91.878906 -8.8125 -91.421875 C -9.757812 -90.960938 -10.617188 -90.335938 -11.390625 -89.546875 C -11.054688 -88.460938 -10.5 -87.628906 -9.71875 -87.046875 C -8.945312 -86.460938 -8.078125 -85.972656 -7.109375 -85.578125 C -6.609375 -85.328125 -6.117188 -85.054688 -5.640625 -84.765625 C -2.835938 -83.191406 0.140625 -81.984375 3.296875 -81.140625 C 3.398438 -81.097656 3.507812 -81.003906 3.625 -80.859375 C 3.738281 -80.710938 3.820312 -80.59375 3.875 -80.5 C 3.9375 -80.144531 3.882812 -79.898438 3.71875 -79.765625 C 3.550781 -79.640625 3.359375 -79.519531 3.140625 -79.40625 C 1.859375 -78.925781 0.597656 -78.863281 -0.640625 -79.21875 C -3.066406 -79.957031 -5.425781 -80.832031 -7.71875 -81.84375 C -10.007812 -82.851562 -12.1875 -84.101562 -14.25 -85.59375 C -17.570312 -88 -17.472656 -90.25 -13.953125 -92.34375 C -12.054688 -93.488281 -10.046875 -94.460938 -7.921875 -95.265625 C -4.828125 -96.503906 -1.691406 -97.578125 1.484375 -98.484375 C 4.671875 -99.390625 7.863281 -100.285156 11.0625 -101.171875 C 11.382812 -101.222656 11.707031 -101.300781 12.03125 -101.40625 C 20.28125 -103.539062 28.597656 -105.316406 36.984375 -106.734375 C 45.378906 -108.148438 53.78125 -109.421875 62.1875 -110.546875 C 66.84375 -111.148438 71.523438 -111.578125 76.234375 -111.828125 C 77.398438 -111.890625 78.492188 -112.117188 79.515625 -112.515625 C 80.535156 -112.910156 81.410156 -113.613281 82.140625 -114.625 C 82.316406 -114.945312 82.601562 -115.210938 83 -115.421875 C 83.394531 -115.628906 83.769531 -115.820312 84.125 -116 C 84.289062 -116.070312 84.414062 -116.144531 84.5 -116.21875 C 84.988281 -116.40625 85.429688 -116.390625 85.828125 -116.171875 C 86.222656 -115.953125 86.414062 -115.535156 86.40625 -114.921875 C 86.457031 -114.296875 86.578125 -113.832031 86.765625 -113.53125 C 86.960938 -113.238281 87.363281 -113.097656 87.96875 -113.109375 C 88.257812 -113.109375 88.539062 -113.132812 88.8125 -113.1875 C 89.976562 -113.269531 91.160156 -113.269531 92.359375 -113.1875 C 93.066406 -113.113281 93.460938 -112.6875 93.546875 -111.90625 C 93.503906 -111.613281 93.398438 -111.367188 93.234375 -111.171875 C 93.078125 -110.984375 92.890625 -110.875 92.671875 -110.84375 C 91.429688 -110.53125 90.175781 -110.25 88.90625 -110 C 87.519531 -109.78125 86.414062 -109.601562 85.59375 -109.46875 C 84.59375 -109.34375 83.84375 -109.191406 83.34375 -109.015625 C 82.84375 -108.847656 82.410156 -108.566406 82.046875 -108.171875 C 81.679688 -107.785156 81.203125 -107.148438 80.609375 -106.265625 C 80.148438 -105.628906 79.554688 -104.800781 78.828125 -103.78125 C 72.921875 -95.800781 66.875 -87.914062 60.6875 -80.125 C 58.625 -77.476562 56.554688 -74.859375 54.484375 -72.265625 C 45.484375 -60.617188 36.503906 -48.914062 27.546875 -37.15625 C 15.878906 -21.976562 3.546875 -7.394531 -9.453125 6.59375 C -12.378906 9.769531 -15.332031 12.929688 -18.3125 16.078125 C -20.113281 17.984375 -21.929688 19.878906 -23.765625 21.765625 C -23.867188 21.890625 -23.984375 22.03125 -24.109375 22.1875 C -24.390625 22.46875 -24.644531 22.765625 -24.875 23.078125 C -25.113281 23.398438 -25.191406 23.796875 -25.109375 24.265625 C -23.992188 23.929688 -22.875 23.582031 -21.75 23.21875 C -19.0625 22.34375 -16.347656 21.457031 -13.609375 20.5625 C -5.015625 17.800781 3.722656 15.410156 12.609375 13.390625 C 23.796875 10.910156 35.039062 8.625 46.34375 6.53125 C 57.65625 4.445312 68.976562 2.507812 80.3125 0.71875 C 97.644531 -1.96875 115.035156 -3.941406 132.484375 -5.203125 C 158.523438 -7.046875 184.550781 -7.226562 210.5625 -5.75 C 210.800781 -5.726562 211.039062 -5.710938 211.28125 -5.703125 C 212.851562 -5.679688 214.382812 -5.5625 215.875 -5.34375 C 216.695312 -5.195312 217.429688 -4.863281 218.078125 -4.34375 Z M 218.078125 -4.34375 "/></g></g></g><g fill="#000000" fill-opacity="1"><g transform="translate(90.768873, 224.343741)"><g><path d="M 24.125 -23.5625 C 24.769531 -23.3125 24.953125 -22.5 24.671875 -21.125 C 24.097656 -20.050781 23.460938 -19.035156 22.765625 -18.078125 C 22.078125 -17.117188 21.296875 -16.234375 20.421875 -15.421875 C 20.347656 -15.410156 20.316406 -15.378906 20.328125 -15.328125 C 19.742188 -14.773438 19.117188 -14.273438 18.453125 -13.828125 C 12.828125 -10.703125 9.566406 -11.46875 8.671875 -16.125 C 6.585938 -13.632812 5.171875 -12.082031 4.421875 -11.46875 C 2.628906 -9.976562 0.578125 -9.109375 -1.734375 -8.859375 C -3.460938 -8.671875 -4.707031 -8.992188 -5.46875 -9.828125 C -6.226562 -10.671875 -6.378906 -11.953125 -5.921875 -13.671875 C -5.234375 -16.390625 -4.035156 -18.898438 -2.328125 -21.203125 C -0.304688 -23.796875 2.039062 -25.992188 4.71875 -27.796875 C 6.144531 -28.816406 7.726562 -29.375 9.46875 -29.46875 C 11.1875 -29.65625 12.375 -28.867188 13.03125 -27.109375 C 13.269531 -26.566406 13.207031 -26.050781 12.84375 -25.5625 C 12.375 -24.96875 11.757812 -24.75 11 -24.90625 C 10.945312 -24.894531 10.875 -24.894531 10.78125 -24.90625 C 10.6875 -24.925781 10.609375 -24.957031 10.546875 -25 C 9.660156 -25.882812 8.863281 -26.1875 8.15625 -25.90625 C 7.445312 -25.625 6.710938 -25.164062 5.953125 -24.53125 C 2.472656 -21.65625 0.117188 -18.046875 -1.109375 -13.703125 C -1.179688 -13.515625 -1.210938 -13.304688 -1.203125 -13.078125 C -1.191406 -12.859375 -1.097656 -12.703125 -0.921875 -12.609375 C -0.453125 -12.523438 0.0351562 -12.632812 0.546875 -12.9375 C 1.066406 -13.25 1.570312 -13.65625 2.0625 -14.15625 C 2.550781 -14.65625 2.953125 -15.078125 3.265625 -15.421875 C 3.304688 -15.492188 3.328125 -15.53125 3.328125 -15.53125 C 4.910156 -17.363281 6.445312 -19.222656 7.9375 -21.109375 C 8.582031 -22.054688 9.472656 -22.675781 10.609375 -22.96875 C 12.265625 -23.238281 13.078125 -22.609375 13.046875 -21.078125 C 12.984375 -20.492188 12.90625 -19.921875 12.8125 -19.359375 C 12.550781 -16.867188 12.753906 -15.460938 13.421875 -15.140625 C 14.085938 -14.828125 15.003906 -14.976562 16.171875 -15.59375 C 17.347656 -16.21875 18.460938 -17.210938 19.515625 -18.578125 C 20.566406 -19.941406 21.4375 -21.175781 22.125 -22.28125 C 22.820312 -23.382812 23.488281 -23.8125 24.125 -23.5625 Z M 24.125 -23.5625 "/></g></g></g></svg>