<svg width="142" height="66" viewBox="0 0 142 66" fill="none" xmlns="http://www.w3.org/2000/svg">
<g clip-path="url(#clip0_949_68)">
<path d="M58.1259 37.901C57.1467 37.901 56.2829 37.7027 55.5344 37.306C54.7889 36.9065 54.2062 36.2998 53.789 35.486C53.3704 34.6694 53.1619 33.6413 53.1619 32.4002C53.1619 31.1023 53.3808 30.0406 53.8186 29.2152C54.2594 28.3913 54.8673 27.7802 55.6409 27.3835C56.4175 26.984 57.2991 26.7827 58.2857 26.7827C58.8256 26.7827 59.3477 26.8381 59.8536 26.946C60.3624 27.0554 60.7781 27.1896 61.102 27.3485L60.605 28.7135C60.2737 28.5823 59.8906 28.4627 59.4572 28.3577C59.0268 28.2527 58.6229 28.2002 58.2443 28.2002C57.4899 28.2002 56.8627 28.3621 56.3628 28.6844C55.8613 29.0038 55.4871 29.4719 55.2386 30.0902C54.9931 30.7085 54.8718 31.4727 54.8718 32.3827C54.8718 33.2504 54.9916 33.9913 55.2327 34.6052C55.4723 35.2163 55.8318 35.6829 56.3095 36.0052C56.7903 36.329 57.3923 36.4894 58.1141 36.4894C58.6895 36.4894 59.2087 36.4296 59.6702 36.3085C60.1347 36.189 60.5547 36.046 60.9304 35.8827V37.3294C60.5666 37.5131 60.1628 37.6531 59.7175 37.7494C59.2708 37.85 58.7413 37.901 58.1259 37.901Z" fill="black"/>
<path d="M71.4453 26.9812V37.7029H70.0963L69.8596 36.1979H69.7709C69.546 36.5683 69.2532 36.8804 68.8952 37.137C68.5402 37.3908 68.1379 37.5804 67.6882 37.7087C67.2415 37.837 66.7682 37.9012 66.2682 37.9012C65.4073 37.9012 64.6855 37.7641 64.1027 37.4929C63.5229 37.2172 63.085 36.7914 62.7892 36.2154C62.4934 35.6408 62.3455 34.9029 62.3455 34.0045V26.9812H64.014V33.8879C64.014 34.7833 64.2181 35.4497 64.6293 35.8887C65.039 36.3291 65.6647 36.5479 66.5049 36.5479C67.3125 36.5479 67.9559 36.3991 68.4337 36.0987C68.9144 35.7997 69.2591 35.3579 69.4691 34.7745C69.6821 34.1912 69.7886 33.4766 69.7886 32.6279V26.9812H71.4453Z" fill="black"/>
<path d="M80.9321 34.7685C80.9321 35.454 80.7576 36.0285 80.4114 36.4952C80.0638 36.9619 79.5668 37.3148 78.9204 37.551C78.277 37.7844 77.5078 37.901 76.6129 37.901C75.8512 37.901 75.1929 37.8398 74.6368 37.7202C74.0806 37.6035 73.5954 37.4388 73.1813 37.2244V35.7252C73.6221 35.944 74.1516 36.1394 74.7669 36.3144C75.3823 36.4894 76.0109 36.5769 76.6544 36.5769C77.5921 36.5769 78.2726 36.4281 78.6956 36.1277C79.1216 35.8288 79.3346 35.4204 79.3346 34.9027C79.3346 34.611 79.2488 34.3529 79.0802 34.1269C78.9101 33.9023 78.6261 33.6835 78.2282 33.4735C77.8333 33.2606 77.2845 33.0273 76.5834 32.7735C75.8881 32.514 75.2876 32.2544 74.7788 31.9977C74.2729 31.7381 73.8824 31.4231 73.6073 31.0527C73.3351 30.6794 73.199 30.1952 73.199 29.6002C73.199 28.6946 73.5688 27.999 74.3114 27.5119C75.0569 27.0263 76.0346 26.7827 77.246 26.7827C77.8998 26.7827 78.5137 26.8469 79.0861 26.9752C79.6615 27.1035 80.1955 27.2756 80.6895 27.4885L80.1393 28.7894C79.6852 28.5998 79.2044 28.4394 78.6956 28.311C78.1868 28.1798 77.6676 28.1127 77.1395 28.1127C76.3778 28.1127 75.7935 28.2381 75.3882 28.486C74.9814 28.7354 74.7788 29.0738 74.7788 29.501C74.7788 29.8365 74.8705 30.1121 75.0569 30.3294C75.2462 30.5438 75.5494 30.7465 75.968 30.936C76.3851 31.1227 76.9339 31.3429 77.6129 31.5952C78.2948 31.8446 78.8849 32.1013 79.3819 32.3652C79.8789 32.6306 80.2606 32.9515 80.5298 33.3277C80.7975 33.701 80.9321 34.1823 80.9321 34.7685Z" fill="black"/>
<path d="M86.0546 36.5653C86.3267 36.5653 86.6048 36.5448 86.8888 36.5011C87.1728 36.4544 87.405 36.399 87.587 36.3319V37.5978C87.3932 37.6794 87.1255 37.7494 86.7823 37.8078C86.4421 37.869 86.1108 37.9011 85.7883 37.9011C85.2114 37.9011 84.6893 37.8019 84.2204 37.6036C83.75 37.4023 83.3743 37.064 83.0903 36.5886C82.8093 36.1103 82.6702 35.4511 82.6702 34.6111V28.2528H81.126V27.4594L82.6821 26.8236L83.3388 24.4961H84.3269V26.9811H87.516V28.2528H84.3269V34.5644C84.3269 35.2338 84.4837 35.7355 84.8002 36.0694C85.1153 36.4005 85.5339 36.5653 86.0546 36.5653Z" fill="black"/>
<path d="M92.6231 37.9011C91.246 37.9011 90.1558 37.4388 89.3512 36.5128C88.5465 35.5838 88.1442 34.2072 88.1442 32.3828C88.1442 30.5365 88.5539 29.1424 89.3748 28.2003C90.1943 27.2553 91.2874 26.7828 92.6527 26.7828C93.2281 26.7828 93.731 26.8586 94.1614 27.0103C94.5904 27.159 94.9602 27.3588 95.2678 27.6111C95.5785 27.8605 95.8417 28.1463 96.0547 28.4686H96.1731C96.145 28.2674 96.1169 27.9903 96.0902 27.6403C96.0666 27.2874 96.0547 26.9986 96.0547 26.777V22.4778H97.6996V37.7028H96.3742L96.1257 36.1745H96.0547C95.8491 36.4982 95.5888 36.7899 95.2737 37.0495C94.9616 37.3105 94.5889 37.519 94.1555 37.6736C93.7206 37.8253 93.2103 37.9011 92.6231 37.9011ZM92.8775 36.5478C94.0401 36.5478 94.8625 36.224 95.3447 35.5736C95.8299 34.9203 96.0725 33.9505 96.0725 32.6628V32.3711C96.0725 31.0061 95.8417 29.9605 95.3802 29.2328C94.9217 28.5022 94.0875 28.1361 92.8775 28.1361C91.8672 28.1361 91.1099 28.5197 90.6055 29.2853C90.1041 30.0524 89.8541 31.0965 89.8541 32.4178C89.8541 33.7361 90.1026 34.7555 90.5996 35.4745C91.0995 36.1905 91.8598 36.5478 92.8775 36.5478Z" fill="black"/>
<path d="M104.334 26.7827C105.26 26.7827 106.056 26.9854 106.719 27.3894C107.381 27.7948 107.886 28.3606 108.233 29.0869C108.584 29.8146 108.76 30.6648 108.76 31.636V32.6452H101.252C101.271 33.9052 101.589 34.8648 102.204 35.521C102.82 36.1788 103.685 36.5069 104.802 36.5069C105.491 36.5069 106.1 36.4471 106.63 36.326C107.158 36.2021 107.707 36.0198 108.275 35.7777V37.201C107.726 37.446 107.182 37.624 106.642 37.7319C106.105 37.8442 105.467 37.901 104.731 37.901C103.685 37.901 102.774 37.691 101.997 37.271C101.219 36.8481 100.616 36.2298 100.187 35.416C99.7563 34.5994 99.5418 33.6004 99.5418 32.4177C99.5418 31.2627 99.7385 30.2638 100.133 29.4194C100.527 28.5765 101.083 27.926 101.802 27.471C102.519 27.0131 103.364 26.7827 104.334 26.7827ZM104.317 28.1127C103.436 28.1127 102.734 28.3971 102.21 28.9644C101.69 29.5331 101.379 30.3265 101.281 31.3444H107.038C107.029 30.7027 106.927 30.1413 106.731 29.6585C106.537 29.1729 106.241 28.7938 105.843 28.521C105.448 28.2498 104.939 28.1127 104.317 28.1127Z" fill="black"/>
<path d="M112.917 37.7029L108.787 26.9812H110.556L112.947 33.4679C113.112 33.9112 113.28 34.4012 113.45 34.9379C113.623 35.4716 113.743 35.9004 113.811 36.227H113.876C113.958 35.9004 114.09 35.4687 114.272 34.932C114.457 34.3925 114.627 33.9039 114.781 33.4679L117.171 26.9812H118.94L114.799 37.7029H112.917Z" fill="black"/>
<path d="M121.287 26.9811V37.7028H119.642V26.9811H121.287ZM120.482 22.9678C120.754 22.9678 120.987 23.0553 121.18 23.2303C121.377 23.4024 121.476 23.6707 121.476 24.0353C121.476 24.394 121.377 24.6624 121.18 24.8403C120.987 25.0153 120.754 25.1028 120.482 25.1028C120.198 25.1028 119.961 25.0153 119.772 24.8403C119.583 24.6624 119.488 24.394 119.488 24.0353C119.488 23.6707 119.583 23.4024 119.772 23.2303C119.961 23.0553 120.198 22.9678 120.482 22.9678Z" fill="black"/>
<path d="M135.54 26.7827C136.738 26.7827 137.641 27.0919 138.249 27.7102C138.86 28.3256 139.167 29.3144 139.167 30.6794V37.7027H137.539V30.7552C137.539 29.889 137.347 29.2385 136.966 28.8069C136.587 28.3723 136.022 28.1535 135.273 28.1535C134.22 28.1535 133.454 28.4554 132.978 29.0577C132.504 29.6571 132.268 30.5394 132.268 31.706V37.7027H130.629V30.7552C130.629 30.1763 130.543 29.6935 130.374 29.3085C130.209 28.9235 129.957 28.6363 129.623 28.4452C129.287 28.2513 128.866 28.1535 128.357 28.1535C127.635 28.1535 127.055 28.3023 126.617 28.5969C126.182 28.8885 125.867 29.3246 125.671 29.9035C125.477 30.4796 125.381 31.1869 125.381 32.0269V37.7027H123.736V26.981H125.061L125.31 28.4977H125.398C125.619 28.1244 125.892 27.8123 126.221 27.5585C126.552 27.3019 126.922 27.1094 127.333 26.981C127.743 26.8498 128.181 26.7827 128.647 26.7827C129.471 26.7827 130.163 26.9344 130.723 27.2377C131.283 27.541 131.689 28.0048 131.942 28.626H132.031C132.386 28.0048 132.874 27.541 133.498 27.2377C134.121 26.9344 134.801 26.7827 135.54 26.7827Z" fill="black"/>
<path d="M103.098 46.7199C103.171 46.7753 103.219 46.8628 103.24 46.9824L103.257 47.0699C103.265 47.1166 103.271 47.1603 103.275 47.1982C103.247 47.3266 103.186 47.4243 103.092 47.4899C103 47.557 102.892 47.5993 102.766 47.6182C102.707 47.6299 102.643 47.6357 102.577 47.6357C102.509 47.6357 102.456 47.6299 102.417 47.6182C101.896 47.296 101.352 47.1078 100.784 47.0524C100.216 46.9941 99.6555 46.9795 99.1038 47.0057C98.7636 47.0174 98.4322 47.0203 98.1098 47.0116C90.745 46.771 83.395 46.8512 76.0584 47.2507C72.3264 47.4928 68.5974 47.7816 64.8699 48.1199C61.9944 48.3882 59.1263 48.7222 56.2671 49.1232C54.3812 49.4062 52.5041 49.6541 50.6344 49.8641C49.2499 50.0391 47.8654 50.2607 46.4809 50.5291C46.0387 50.6224 45.6112 50.7012 45.197 50.7682C43.9264 50.9899 42.6558 51.2087 41.3867 51.4274C37.9388 52.0341 34.5012 52.6714 31.0739 53.3407C28.1274 53.9197 25.1987 54.5687 22.2877 55.2891C19.3767 56.008 16.5056 56.8597 13.673 57.8441C11.7442 58.4697 9.88488 59.2616 8.09361 60.2182C8.03148 60.2445 7.96344 60.2897 7.89244 60.3524C7.69127 60.4691 7.48863 60.5697 7.28302 60.6557C7.07446 60.7403 6.84223 60.7797 6.58486 60.7724C6.30086 60.7841 6.10856 60.6674 6.00502 60.4224C5.96952 60.348 5.96213 60.262 5.98136 60.1657C5.99763 60.0724 6.02869 59.9864 6.07602 59.9091C6.4044 59.5387 6.74461 59.1916 7.09961 58.8649C10.2916 55.7732 13.3816 52.5853 16.371 49.3041C21.6443 43.6457 26.6128 37.7453 31.2751 31.5999C34.1772 27.7776 37.1341 24.0093 40.1442 20.2949C42.0641 17.9193 43.9723 15.5262 45.8656 13.1141C46.7842 11.9328 47.6909 10.7312 48.5873 9.50908C48.7012 9.33846 48.8091 9.18096 48.9127 9.03658C48.9748 8.99429 49.0207 8.94325 49.0488 8.88491C49.139 8.77262 49.2218 8.65158 49.2973 8.52325C49.3712 8.392 49.3949 8.24762 49.3683 8.09158C49.1316 7.96033 48.8964 7.89033 48.6642 7.88158C48.4305 7.87429 48.1849 7.89179 47.9246 7.93408C47.8255 7.95012 47.7131 7.96762 47.5874 7.98658C44.9278 8.217 42.2801 8.5145 39.6413 8.87908C37.0054 9.24075 34.3725 9.69283 31.7425 10.2324C29.5297 10.6757 27.3198 11.1716 25.1159 11.7199C22.9104 12.2653 20.739 12.9099 18.6016 13.6566C18.4951 13.6916 18.393 13.7251 18.2939 13.7557C17.9079 13.8885 17.5366 14.0401 17.1816 14.2107C16.8236 14.3828 16.4982 14.6162 16.2054 14.9107C16.3326 15.3162 16.5426 15.6268 16.8384 15.8441C17.1313 16.0628 17.4597 16.2451 17.8265 16.3924C18.0159 16.4857 18.2022 16.5878 18.3827 16.6957C19.4447 17.2835 20.5719 17.7341 21.767 18.0491C21.8055 18.0651 21.8469 18.1001 21.8913 18.1541C21.9342 18.2095 21.9652 18.2532 21.9859 18.2882C22.0096 18.421 21.9889 18.5128 21.9268 18.5624C21.8632 18.6091 21.7907 18.6543 21.7079 18.6966C21.2227 18.876 20.7449 18.8993 20.276 18.7666C19.3575 18.491 18.464 18.1643 17.5958 17.7866C16.729 17.4103 15.9036 16.9437 15.1226 16.3866C13.8653 15.4882 13.9023 14.6482 15.235 13.8666C15.9539 13.4393 16.7142 13.0762 17.5189 12.7757C18.6904 12.3135 19.8781 11.9124 21.0807 11.5741C22.2877 11.2357 23.4962 10.9018 24.7076 10.5707C24.8289 10.5518 24.9517 10.5226 25.0744 10.4832C28.1984 9.687 31.3476 9.02346 34.5234 8.49408C37.7021 7.96616 40.8838 7.49075 44.0669 7.07075C45.8301 6.84616 47.6021 6.68575 49.386 6.59241C49.8268 6.56908 50.241 6.4845 50.6285 6.33575C51.0146 6.18846 51.3459 5.92596 51.6225 5.54825C51.6891 5.42866 51.7971 5.3295 51.9479 5.25075C52.0973 5.17346 52.2393 5.102 52.3739 5.03491C52.4361 5.00866 52.4834 4.98096 52.5159 4.95325C52.7008 4.88325 52.868 4.88908 53.0189 4.97075C53.1683 5.05241 53.2407 5.20846 53.2378 5.43741C53.257 5.67075 53.3029 5.84429 53.3739 5.95658C53.4478 6.06596 53.6002 6.11846 53.8294 6.11408C53.9389 6.11408 54.0454 6.10533 54.1489 6.08491C54.5897 6.05429 55.0379 6.05429 55.492 6.08491C55.7598 6.11262 55.9091 6.27158 55.9417 6.56325C55.9254 6.67262 55.8855 6.7645 55.8234 6.83741C55.7642 6.90741 55.6932 6.94825 55.6104 6.95991C55.14 7.07658 54.6652 7.18158 54.1844 7.27491C53.6593 7.35658 53.2407 7.42366 52.9301 7.47325C52.5514 7.51991 52.2674 7.57679 52.0781 7.64241C51.8888 7.70512 51.7246 7.81012 51.587 7.95741C51.448 8.10179 51.2675 8.3395 51.0427 8.66908C50.8681 8.90679 50.6433 9.21596 50.3682 9.59658C48.1317 12.576 45.8419 15.5203 43.4989 18.4282C42.7179 19.417 41.934 20.3941 41.15 21.3624C37.742 25.7112 34.3414 30.0803 30.9497 34.4699C26.5314 40.137 21.8617 45.581 16.939 50.8032C15.8311 51.9889 14.7129 53.1687 13.5843 54.3441C12.9024 55.0557 12.2146 55.763 11.5194 56.4674C11.4809 56.5141 11.4365 56.5666 11.3892 56.6249C11.2827 56.7299 11.1865 56.8407 11.0993 56.9574C11.009 57.077 10.9795 57.2257 11.0105 57.4007C11.4336 57.2753 11.8566 57.1455 12.2826 57.0099C13.3003 56.6832 14.3283 56.3522 15.3652 56.0182C18.6194 54.9872 21.9283 54.0947 25.2934 53.3407C29.5297 52.4147 33.7867 51.5616 38.0674 50.7799C42.3511 50.0012 46.6377 49.2778 50.9303 48.6099C57.4933 47.6066 64.0786 46.8701 70.686 46.3991C80.5461 45.7107 90.4018 45.6437 100.252 46.1949C100.342 46.2037 100.432 46.2095 100.524 46.2124C101.118 46.2212 101.698 46.2649 102.263 46.3466C102.574 46.402 102.852 46.526 103.098 46.7199Z" fill="#393636" fill-opacity="0.302"/>
<path d="M46.6757 36.8191C46.9198 36.9124 46.9893 37.2158 46.8828 37.7291C46.6654 38.1301 46.4243 38.5093 46.161 38.8666C45.9007 39.2253 45.6048 39.5549 45.2735 39.8583C45.2454 39.8626 45.2335 39.8743 45.238 39.8933C45.0161 40.1003 44.7794 40.287 44.528 40.4533C42.398 41.6199 41.1629 41.3341 40.8242 39.5958C40.0343 40.5262 39.4988 41.1051 39.2148 41.3341C38.5359 41.8912 37.7593 42.2149 36.8837 42.3083C36.2299 42.3783 35.758 42.2587 35.4696 41.9466C35.1826 41.6316 35.1249 41.1533 35.298 40.5116C35.5583 39.4966 36.0124 38.5603 36.6588 37.6999C37.425 36.7316 38.3125 35.912 39.3272 35.2383C39.8671 34.8576 40.4662 34.6491 41.1259 34.6141C41.7767 34.5441 42.2264 34.8387 42.4749 35.4949C42.5651 35.6976 42.5415 35.8901 42.4039 36.0724C42.2264 36.2941 41.9927 36.3758 41.7057 36.3174C41.685 36.3218 41.6584 36.3218 41.6229 36.3174C41.5874 36.3101 41.5578 36.2985 41.5342 36.2824C41.1984 35.9528 40.8966 35.8391 40.6289 35.9441C40.3597 36.0491 40.0816 36.2212 39.7947 36.4574C38.4767 37.5308 37.5848 38.8783 37.1203 40.4999C37.0937 40.5699 37.0819 40.6487 37.0848 40.7333C37.0893 40.8149 37.1248 40.8733 37.1913 40.9083C37.3688 40.9403 37.5537 40.8995 37.7475 40.7858C37.9442 40.6691 38.135 40.5174 38.3214 40.3308C38.5063 40.1441 38.6587 39.9866 38.777 39.8583C38.7918 39.832 38.8007 39.8174 38.8007 39.8174C39.3997 39.1335 39.981 38.4393 40.5461 37.7349C40.7901 37.382 41.1274 37.1501 41.5578 37.0408C42.185 36.9401 42.4927 37.1749 42.4808 37.7466C42.4572 37.9653 42.4276 38.1783 42.3921 38.3883C42.293 39.3187 42.3699 39.8437 42.6228 39.9633C42.8743 40.0799 43.2219 40.0245 43.6642 39.7941C44.1094 39.5608 44.5309 39.1903 44.9303 38.6799C45.3282 38.171 45.6581 37.7101 45.9184 37.2974C46.1817 36.8862 46.4346 36.7258 46.6757 36.8191Z" fill="#393636" fill-opacity="0.302"/>
<path d="M101.513 45.7895C101.587 45.8449 101.634 45.9324 101.655 46.052L101.673 46.1395C101.68 46.1862 101.686 46.2299 101.69 46.2678C101.662 46.3962 101.602 46.4939 101.507 46.5595C101.415 46.6266 101.307 46.6689 101.182 46.6878C101.122 46.6995 101.059 46.7053 100.992 46.7053C100.924 46.7053 100.871 46.6995 100.833 46.6878C100.312 46.3655 99.7675 46.1774 99.1995 46.122C98.6315 46.0637 98.0709 46.0491 97.5192 46.0753C97.179 46.087 96.8476 46.0899 96.5252 46.0812C89.1604 45.8405 81.8104 45.9207 74.4738 46.3203C70.7418 46.5624 67.0128 46.8512 63.2853 47.1895C60.4098 47.4578 57.5417 47.7918 54.6825 48.1928C52.7966 48.4757 50.9195 48.7237 49.0498 48.9337C47.6653 49.1087 46.2808 49.3303 44.8963 49.5987C44.4541 49.692 44.0266 49.7707 43.6124 49.8378C42.3418 50.0595 41.0712 50.2782 39.8021 50.497C36.3542 51.1037 32.9166 51.741 29.4893 52.4103C26.5428 52.9893 23.6141 53.6382 20.7031 54.3587C17.7921 55.0776 14.921 55.9293 12.0884 56.9137C10.1596 57.5393 8.30028 58.3312 6.50901 59.2878C6.44689 59.3141 6.37884 59.3593 6.30784 59.422C6.10668 59.5387 5.90403 59.6393 5.69843 59.7253C5.48986 59.8099 5.25764 59.8493 5.00026 59.842C4.71626 59.8537 4.52397 59.737 4.42043 59.492C4.38493 59.4176 4.37753 59.3316 4.39676 59.2353C4.41303 59.142 4.44409 59.056 4.49143 58.9787C4.8198 58.6082 5.16001 58.2612 5.51501 57.9345C8.70705 54.8428 11.797 51.6549 14.7864 48.3737C20.0597 42.7153 25.0282 36.8149 29.6905 30.6695C32.5926 26.8472 35.5495 23.0789 38.5596 19.3645C40.4796 16.9889 42.3877 14.5957 44.281 12.1837C45.1996 11.0024 46.1063 9.80074 47.0027 8.57866C47.1166 8.40804 47.2246 8.25054 47.3281 8.10616C47.3902 8.06387 47.4361 8.01283 47.4642 7.95449C47.5544 7.8422 47.6372 7.72116 47.7127 7.59283C47.7866 7.46158 47.8103 7.3172 47.7837 7.16116C47.547 7.02991 47.3118 6.95991 47.0796 6.95116C46.8459 6.94387 46.6003 6.96137 46.34 7.00366C46.2409 7.0197 46.1285 7.0372 46.0028 7.05616C43.3432 7.28658 40.6955 7.58408 38.0567 7.94866C35.4208 8.31033 32.7879 8.76241 30.1579 9.30199C27.9451 9.74533 25.7352 10.2412 23.5313 10.7895C21.3258 11.3349 19.1544 11.9795 17.017 12.7262C16.9105 12.7612 16.8084 12.7947 16.7093 12.8253C16.3233 12.958 15.952 13.1097 15.597 13.2803C15.2391 13.4524 14.9136 13.6857 14.6208 13.9803C14.748 14.3857 14.958 14.6964 15.2538 14.9137C15.5467 15.1324 15.8751 15.3147 16.2419 15.462C16.4313 15.5553 16.6176 15.6574 16.7981 15.7653C17.8601 16.353 18.9873 16.8037 20.1824 17.1187C20.2209 17.1347 20.2623 17.1697 20.3067 17.2237C20.3496 17.2791 20.3806 17.3228 20.4013 17.3578C20.425 17.4905 20.4043 17.5824 20.3422 17.632C20.2786 17.6787 20.2061 17.7239 20.1233 17.7662C19.6381 17.9455 19.1603 17.9689 18.6914 17.8362C17.7729 17.5605 16.8794 17.2339 16.0112 16.8562C15.1444 16.4799 14.319 16.0132 13.538 15.4562C12.2807 14.5578 12.3177 13.7178 13.6504 12.9362C14.3693 12.5089 15.1296 12.1457 15.9343 11.8453C17.1058 11.383 18.2935 10.982 19.4961 10.6437C20.7031 10.3053 21.9116 9.97137 23.123 9.64033C23.2443 9.62137 23.3671 9.5922 23.4898 9.55283C26.6138 8.75658 29.763 8.09304 32.9388 7.56366C36.1175 7.03574 39.2992 6.56033 42.4823 6.14033C44.2455 5.91574 46.0176 5.75533 47.8014 5.66199C48.2422 5.63866 48.6564 5.55408 49.0439 5.40533C49.43 5.25804 49.7613 4.99554 50.0379 4.61783C50.1045 4.49824 50.2125 4.39908 50.3633 4.32033C50.5127 4.24304 50.6547 4.17158 50.7893 4.10449C50.8515 4.07824 50.8988 4.05054 50.9313 4.02283C51.1162 3.95283 51.2834 3.95866 51.4343 4.04033C51.5837 4.12199 51.6561 4.27804 51.6532 4.50699C51.6724 4.74033 51.7183 4.91387 51.7893 5.02616C51.8632 5.13554 52.0156 5.18804 52.2448 5.18366C52.3543 5.18366 52.4608 5.17491 52.5643 5.15449C53.0051 5.12387 53.4533 5.12387 53.9074 5.15449C54.1752 5.1822 54.3246 5.34116 54.3571 5.63283C54.3408 5.7422 54.3009 5.83408 54.2388 5.90699C54.1796 5.97699 54.1086 6.01783 54.0258 6.02949C53.5554 6.14616 53.0806 6.25116 52.5998 6.34449C52.0747 6.42616 51.6561 6.49324 51.3455 6.54283C50.9668 6.58949 50.6828 6.64637 50.4935 6.71199C50.3042 6.7747 50.14 6.8797 50.0024 7.02699C49.8634 7.17137 49.6829 7.40908 49.4581 7.73866C49.2836 7.97637 49.0587 8.28554 48.7836 8.66616C46.5471 11.6455 44.2573 14.5899 41.9143 17.4978C41.1333 18.4866 40.3494 19.4637 39.5654 20.432C36.1574 24.7807 32.7568 29.1499 29.3651 33.5395C24.9468 39.2066 20.2771 44.6505 15.3544 49.8728C14.2465 51.0585 13.1283 52.2382 11.9997 53.4137C11.3178 54.1253 10.63 54.8326 9.93476 55.537C9.8963 55.5837 9.85193 55.6362 9.80459 55.6945C9.69809 55.7995 9.60195 55.9103 9.51468 56.027C9.42445 56.1466 9.39487 56.2953 9.42593 56.4703C9.84897 56.3449 10.272 56.2151 10.698 56.0795C11.7157 55.7528 12.7437 55.4218 13.7806 55.0878C17.0348 54.0568 20.3437 53.1643 23.7088 52.4103C27.9451 51.4843 32.2021 50.6312 36.4828 49.8495C40.7665 49.0707 45.0531 48.3474 49.3457 47.6795C55.9087 46.6762 62.494 45.9397 69.1014 45.4687C78.9616 44.7803 88.8172 44.7132 98.667 45.2645C98.7572 45.2732 98.8475 45.2791 98.9392 45.282C99.5338 45.2907 100.114 45.3345 100.679 45.4162C100.989 45.4716 101.267 45.5955 101.513 45.7895Z" fill="#393636" fill-opacity="0.502"/>
<path d="M45.0911 35.8887C45.3351 35.982 45.4047 36.2853 45.2982 36.7987C45.0807 37.1997 44.8396 37.5789 44.5763 37.9362C44.316 38.2949 44.0202 38.6245 43.6888 38.9278C43.6607 38.9322 43.6489 38.9439 43.6533 38.9628C43.4315 39.1699 43.1948 39.3566 42.9433 39.5228C40.8133 40.6895 39.5782 40.4037 39.2395 38.6653C38.4496 39.5958 37.9142 40.1747 37.6302 40.4037C36.9512 40.9607 36.1747 41.2845 35.299 41.3778C34.6452 41.4478 34.1734 41.3282 33.8849 41.0162C33.598 40.7012 33.5403 40.2228 33.7133 39.5812C33.9737 38.5662 34.4278 37.6299 35.0742 36.7695C35.8404 35.8012 36.7279 34.9816 37.7426 34.3078C38.2825 33.9272 38.8815 33.7187 39.5412 33.6837C40.1921 33.6137 40.6417 33.9082 40.8902 34.5645C40.9805 34.7672 40.9568 34.9597 40.8192 35.142C40.6417 35.3637 40.408 35.4453 40.1211 35.387C40.1004 35.3914 40.0737 35.3914 40.0382 35.387C40.0027 35.3797 39.9732 35.368 39.9495 35.352C39.6137 35.0224 39.312 34.9087 39.0442 35.0137C38.775 35.1187 38.497 35.2908 38.21 35.527C36.8921 36.6003 36.0001 37.9478 35.5357 39.5695C35.509 39.6395 35.4972 39.7182 35.5002 39.8028C35.5046 39.8845 35.5401 39.9428 35.6067 39.9778C35.7842 40.0099 35.9691 39.9691 36.1628 39.8553C36.3596 39.7387 36.5504 39.587 36.7367 39.4003C36.9216 39.2137 37.074 39.0562 37.1923 38.9278C37.2071 38.9016 37.216 38.887 37.216 38.887C37.8151 38.203 38.3964 37.5089 38.9614 36.8045C39.2055 36.4516 39.5427 36.2197 39.9732 36.1103C40.6003 36.0097 40.908 36.2445 40.8962 36.8162C40.8725 37.0349 40.8429 37.2478 40.8074 37.4578C40.7083 38.3882 40.7852 38.9132 41.0382 39.0328C41.2896 39.1495 41.6372 39.0941 42.0795 38.8637C42.5247 38.6303 42.9463 38.2599 43.3457 37.7495C43.7436 37.2405 44.0734 36.7797 44.3337 36.367C44.597 35.9558 44.85 35.7953 45.0911 35.8887Z" fill="#393636" fill-opacity="0.502"/>
<path d="M99.9283 44.8591C100.002 44.9145 100.05 45.002 100.07 45.1216L100.088 45.2091C100.095 45.2557 100.101 45.2995 100.106 45.3374C100.078 45.4657 100.017 45.5634 99.9224 45.6291C99.8306 45.6962 99.7227 45.7384 99.5969 45.7574C99.5378 45.7691 99.4742 45.7749 99.4076 45.7749C99.3396 45.7749 99.2863 45.7691 99.2479 45.7574C98.7272 45.4351 98.1829 45.247 97.6149 45.1916C97.0469 45.1332 96.4863 45.1187 95.9345 45.1449C95.5943 45.1566 95.263 45.1595 94.9405 45.1507C87.5758 44.9101 80.2258 44.9903 72.8891 45.3899C69.1572 45.632 65.4282 45.9207 61.7007 46.2591C58.8252 46.5274 55.9571 46.8614 53.0979 47.2624C51.2119 47.5453 49.3349 47.7932 47.4652 48.0032C46.0807 48.1782 44.6962 48.3999 43.3117 48.6682C42.8694 48.7616 42.4419 48.8403 42.0278 48.9074C40.7572 49.1291 39.4866 49.3478 38.2174 49.5666C34.7695 50.1732 31.3319 50.8105 27.9047 51.4799C24.9582 52.0589 22.0294 52.7078 19.1184 53.4282C16.2074 54.1472 13.3364 54.9989 10.5038 55.9832C8.57494 56.6089 6.71563 57.4007 4.92435 58.3574C4.86223 58.3837 4.79419 58.4289 4.72319 58.4916C4.52202 58.6082 4.31938 58.7089 4.11377 58.7949C3.90521 58.8795 3.67298 58.9189 3.4156 58.9116C3.1316 58.9232 2.93931 58.8066 2.83577 58.5616C2.80027 58.4872 2.79288 58.4012 2.8121 58.3049C2.82838 58.2116 2.85944 58.1255 2.90677 58.0482C3.23515 57.6778 3.57535 57.3307 3.93035 57.0041C7.1224 53.9124 10.2124 50.7245 13.2018 47.4432C18.475 41.7849 23.4435 35.8845 28.1059 29.7391C31.008 25.9168 33.9648 22.1484 36.9749 18.4341C38.8949 16.0584 40.803 13.6653 42.6964 11.2532C43.6149 10.072 44.5216 8.87032 45.418 7.64824C45.5319 7.47762 45.6399 7.32012 45.7434 7.17574C45.8056 7.13345 45.8514 7.08241 45.8795 7.02407C45.9698 6.91178 46.0526 6.79074 46.128 6.66241C46.202 6.53116 46.2256 6.38678 46.199 6.23074C45.9624 6.09949 45.7272 6.02949 45.4949 6.02074C45.2612 6.01345 45.0157 6.03095 44.7554 6.07324C44.6563 6.08928 44.5438 6.10678 44.4181 6.12574C41.7586 6.35616 39.1109 6.65366 36.472 7.01824C33.8361 7.37991 31.2032 7.83199 28.5733 8.37157C26.3604 8.81491 24.1506 9.31074 21.9466 9.85907C19.7412 10.4045 17.5698 11.0491 15.4324 11.7957C15.3259 11.8307 15.2238 11.8643 15.1247 11.8949C14.7386 12.0276 14.3674 12.1793 14.0124 12.3499C13.6544 12.522 13.329 12.7553 13.0361 13.0499C13.1633 13.4553 13.3734 13.7659 13.6692 13.9832C13.9621 14.202 14.2904 14.3843 14.6573 14.5316C14.8466 14.6249 15.033 14.727 15.2134 14.8349C16.2755 15.4226 17.4026 15.8732 18.5978 16.1882C18.6362 16.2043 18.6776 16.2393 18.722 16.2932C18.7649 16.3487 18.796 16.3924 18.8167 16.4274C18.8404 16.5601 18.8196 16.652 18.7575 16.7016C18.6939 16.7482 18.6214 16.7934 18.5386 16.8357C18.0534 17.0151 17.5757 17.0384 17.1068 16.9057C16.1882 16.6301 15.2948 16.3034 14.4265 15.9257C13.5597 15.5495 12.7344 15.0828 11.9534 14.5257C10.6961 13.6274 10.733 12.7874 12.0658 12.0057C12.7846 11.5784 13.5449 11.2153 14.3496 10.9149C15.5211 10.4526 16.7089 10.0516 17.9114 9.71324C19.1184 9.37491 20.3269 9.04095 21.5384 8.70991C21.6596 8.69095 21.7824 8.66178 21.9052 8.62241C25.0292 7.82616 28.1783 7.16262 31.3541 6.63324C34.5328 6.10532 37.7145 5.62991 40.8977 5.20991C42.6609 4.98532 44.4329 4.82491 46.2168 4.73157C46.6576 4.70824 47.0717 4.62366 47.4593 4.47491C47.8453 4.32762 48.1767 4.06512 48.4533 3.68741C48.5198 3.56782 48.6278 3.46866 48.7787 3.38991C48.9281 3.31262 49.0701 3.24116 49.2047 3.17407C49.2668 3.14782 49.3141 3.12012 49.3467 3.09241C49.5316 3.02241 49.6987 3.02824 49.8496 3.10991C49.999 3.19157 50.0715 3.34762 50.0685 3.57657C50.0878 3.80991 50.1336 3.98345 50.2046 4.09574C50.2786 4.20512 50.4309 4.25762 50.6602 4.25324C50.7696 4.25324 50.8761 4.24449 50.9797 4.22407C51.4205 4.19345 51.8687 4.19345 52.3228 4.22407C52.5905 4.25178 52.7399 4.41074 52.7724 4.70241C52.7562 4.81178 52.7162 4.90366 52.6541 4.97657C52.5949 5.04657 52.5239 5.08741 52.4411 5.09907C51.9707 5.21574 51.4959 5.32074 51.0152 5.41407C50.4901 5.49574 50.0715 5.56282 49.7609 5.61241C49.3822 5.65907 49.0982 5.71595 48.9089 5.78157C48.7195 5.84428 48.5553 5.94928 48.4178 6.09657C48.2787 6.24095 48.0983 6.47866 47.8734 6.80824C47.6989 7.04595 47.4741 7.35512 47.1989 7.73574C44.9624 10.7151 42.6727 13.6595 40.3297 16.5674C39.5487 17.5562 38.7647 18.5332 37.9808 19.5016C34.5728 23.8503 31.1722 28.2195 27.7804 32.6091C23.3622 38.2762 18.6924 43.7201 13.7698 48.9424C12.6619 50.128 11.5436 51.3078 10.415 52.4832C9.73313 53.1949 9.04531 53.9022 8.35011 54.6066C8.31165 54.6532 8.26727 54.7057 8.21994 54.7641C8.11344 54.8691 8.01729 54.9799 7.93002 55.0966C7.83979 55.2162 7.81021 55.3649 7.84127 55.5399C8.26431 55.4145 8.68735 55.2847 9.11335 55.1491C10.131 54.8224 11.159 54.4914 12.1959 54.1574C15.4501 53.1264 18.759 52.2339 22.1241 51.4799C26.3604 50.5539 30.6175 49.7007 34.8982 48.9191C39.1819 48.1403 43.4685 47.417 47.761 46.7491C54.3241 45.7457 60.9093 45.0093 67.5168 44.5382C77.3769 43.8499 87.2326 43.7828 97.0824 44.3341C97.1726 44.3428 97.2628 44.3487 97.3545 44.3516C97.9491 44.3603 98.529 44.4041 99.094 44.4857C99.4046 44.5412 99.6827 44.6651 99.9283 44.8591Z" fill="black"/>
<path d="M43.5065 34.9582C43.7505 35.0516 43.8201 35.3549 43.7136 35.8682C43.4961 36.2693 43.255 36.6485 42.9917 37.0057C42.7314 37.3645 42.4356 37.6941 42.1042 37.9974C42.0761 38.0018 42.0643 38.0135 42.0687 38.0324C41.8469 38.2395 41.6102 38.4262 41.3587 38.5924C39.2287 39.7591 37.9936 39.4732 37.6549 37.7349C36.865 38.6653 36.3296 39.2443 36.0456 39.4732C35.3666 40.0303 34.5901 40.3541 33.7144 40.4474C33.0606 40.5174 32.5888 40.3978 32.3003 40.0857C32.0134 39.7707 31.9557 39.2924 32.1287 38.6507C32.3891 37.6357 32.8432 36.6995 33.4896 35.8391C34.2558 34.8707 35.1433 34.0512 36.158 33.3774C36.6979 32.9968 37.2969 32.7882 37.9567 32.7532C38.6075 32.6832 39.0572 32.9778 39.3057 33.6341C39.3959 33.8368 39.3722 34.0293 39.2347 34.2116C39.0572 34.4332 38.8234 34.5149 38.5365 34.4566C38.5158 34.461 38.4892 34.461 38.4537 34.4566C38.4182 34.4493 38.3886 34.4376 38.3649 34.4216C38.0291 34.092 37.7274 33.9782 37.4597 34.0832C37.1904 34.1882 36.9124 34.3603 36.6254 34.5966C35.3075 35.6699 34.4155 37.0174 33.9511 38.6391C33.9244 38.7091 33.9126 38.7878 33.9156 38.8724C33.92 38.9541 33.9555 39.0124 34.0221 39.0474C34.1996 39.0795 34.3845 39.0387 34.5782 38.9249C34.775 38.8082 34.9658 38.6566 35.1522 38.4699C35.337 38.2832 35.4894 38.1257 35.6077 37.9974C35.6225 37.9712 35.6314 37.9566 35.6314 37.9566C36.2305 37.2726 36.8118 36.5785 37.3768 35.8741C37.6209 35.5212 37.9581 35.2893 38.3886 35.1799C39.0157 35.0793 39.3234 35.3141 39.3116 35.8857C39.2879 36.1045 39.2583 36.3174 39.2228 36.5274C39.1237 37.4578 39.2006 37.9828 39.4536 38.1024C39.705 38.2191 40.0526 38.1637 40.4949 37.9332C40.9401 37.6999 41.3617 37.3295 41.7611 36.8191C42.159 36.3101 42.4888 35.8493 42.7492 35.4366C43.0124 35.0253 43.2654 34.8649 43.5065 34.9582Z" fill="black"/>
</g>
<defs>
<clipPath id="clip0_949_68">
<rect width="142" height="66" fill="white"/>
</clipPath>
</defs>
</svg>
